<svg xmlns="http://www.w3.org/2000/svg" shape-rendering="geometricPrecision" text-rendering="geometricPrecision" image-rendering="optimizeQuality" fill-rule="evenodd" clip-rule="evenodd" viewBox="0 0 512 500.21" fill="#154e46"><path fill-rule="nonzero" d="m341.7 293.95-93.14 14.25c-5.44.81-10.54-2.95-11.35-8.4l-.07-2.4c3.71-53.69 14.74-116.66 52.3-169.86 32.18-45.61 83.52-83.68 165.77-102.02-15.36-3.02-30.2-4.76-44.52-5.35-73.73-3.03-134.02 24.58-179.99 65.33-46.34 41.07-78.31 95.46-95.12 145.47-8.21 24.41-12.77 47.69-13.59 67.74-.21 5.5-4.85 9.78-10.35 9.57l-76.61-13.7L184.15 474.8 341.7 293.95zm-83.67-7.4 107.44-16.45c2.85-.48 5.89.26 8.23 2.31 4.16 3.62 4.6 9.94.98 14.09L191.5 496.79l-1.18 1.13c-4.24 3.51-10.55 2.91-14.05-1.33L2.27 286.3c-1.78-2.19-2.65-5.12-2.11-8.11.96-5.4 6.15-9.02 11.55-8.05l91.15 16.42c1.87-19.05 6.5-40.13 13.83-61.91 17.78-52.91 51.67-110.53 100.81-154.08C267 26.7 331.94-3.03 411.47.25c29.1 1.18 60.14 6.83 93.04 17.82 3.87 1.01 6.93 4.29 7.42 8.49.64 5.47-3.27 10.46-8.74 11.1-102.9 12.27-162.64 52.09-197.42 101.36-32.12 45.51-43.41 99.54-47.74 147.53z"/></svg>